HIERARCHY
ROOT joint_0
{
	OFFSET 0.000000 0.000000 0.000000
	CHANNELS 6 Xposition Yposition Zposition Zrotation Yrotation Xrotation 
	JOINT joint_1
	{
		OFFSET 17.107422 0.519409 105.452026
		CHANNELS 3 Zrotation Yrotation Xrotation
		JOINT joint_2
		{
			OFFSET 6.110352 -1.434082 97.381958
			CHANNELS 3 Zrotation Yrotation Xrotation
			JOINT joint_3
			{
				OFFSET 6.305908 -1.739990 97.255005
				CHANNELS 3 Zrotation Yrotation Xrotation
				JOINT joint_4
				{
					OFFSET 22.074707 -0.492493 131.077026
					CHANNELS 3 Zrotation Yrotation Xrotation
					JOINT joint_5
					{
						OFFSET 34.162842 2.248718 78.700928
						CHANNELS 3 Zrotation Yrotation Xrotation
						End Site
						{
							OFFSET 0.000000 0.000000 0.000000
						}
					}
				}
				JOINT joint_6
				{
					OFFSET 17.059082 -28.836914 72.664062
					CHANNELS 3 Zrotation Yrotation Xrotation
					JOINT joint_7
					{
						OFFSET 22.639893 -134.803833 -24.691040
						CHANNELS 3 Zrotation Yrotation Xrotation
						JOINT joint_8
						{
							OFFSET 7.301758 -32.590759 -269.966064
							CHANNELS 3 Zrotation Yrotation Xrotation
							JOINT joint_9
							{
								OFFSET 35.581055 -8.517151 -242.326965
								CHANNELS 3 Zrotation Yrotation Xrotation
								End Site
								{
									OFFSET 0.000000 0.000000 0.000000
								}
							}
						}
					}
				}
				JOINT joint_10
				{
					OFFSET 7.819092 28.232056 74.432983
					CHANNELS 3 Zrotation Yrotation Xrotation
					JOINT joint_11
					{
						OFFSET -23.457031 135.063843 -22.406982
						CHANNELS 3 Zrotation Yrotation Xrotation
						JOINT joint_12
						{
							OFFSET 17.896973 48.138672 -267.131958
							CHANNELS 3 Zrotation Yrotation Xrotation
							JOINT joint_13
							{
								OFFSET 46.526367 17.567627 -239.975037
								CHANNELS 3 Zrotation Yrotation Xrotation
								End Site
								{
									OFFSET 0.000000 0.000000 0.000000
								}
							}
						}
					}
				}
			}
		}
	}
	JOINT joint_14
	{
		OFFSET 10.553467 -100.140320 -126.306030
		CHANNELS 3 Zrotation Yrotation Xrotation
		JOINT joint_15
		{
			OFFSET -52.094238 -9.565002 -436.052002
			CHANNELS 3 Zrotation Yrotation Xrotation
			JOINT joint_16
			{
				OFFSET -55.682617 -11.310120 -462.482971
				CHANNELS 3 Zrotation Yrotation Xrotation
				JOINT joint_17
				{
					OFFSET 179.119385 -5.942566 -84.087004
					CHANNELS 3 Zrotation Yrotation Xrotation
					End Site
					{
						OFFSET 0.000000 0.000000 0.000000
					}
				}
			}
		}
	}
	JOINT joint_18
	{
		OFFSET -22.235352 101.620483 -123.583984
		CHANNELS 3 Zrotation Yrotation Xrotation
		JOINT joint_19
		{
			OFFSET -38.118408 12.306396 -437.429016
			CHANNELS 3 Zrotation Yrotation Xrotation
			JOINT joint_20
			{
				OFFSET -51.789307 8.010498 -463.006004
				CHANNELS 3 Zrotation Yrotation Xrotation
				JOINT joint_21
				{
					OFFSET 170.088135 59.632324 -83.078003
					CHANNELS 3 Zrotation Yrotation Xrotation
					End Site
					{
						OFFSET 0.000000 0.000000 0.000000
					}
				}
			}
		}
	}
}
MOTION
Frames: 7
Frame Time: 0.016667
-2613.603027 761.681580 1147.180054 -2.152776 14.183338 -4.164358 -3.398064 13.515523 5.309989 -1.257678 -2.468717 -1.341920 -0.617579 1.972981 0.826544 -3.672238 -5.220167 7.427485 0.000000 0.000000 0.000000 -8.517890 -21.076839 2.434017 -11.663245 -13.572447 -9.605172 -177.273162 -74.135433 -158.043581 0.000000 0.000000 0.000000 -6.322379 11.309256 2.915397 3.876656 9.424182 10.454999 6.951896 15.559692 9.512848 0.000000 0.000000 0.000000 4.592412 -17.853715 0.234159 1.780202 17.987780 0.566167 1.988283 7.193701 1.094488 0.000000 0.000000 0.000000 3.826013 -23.268253 8.878929 4.411550 46.496245 -8.371442 10.137836 11.994777 -1.495145 0.000000 0.000000 0.000000 
-2596.915771 764.296143 1149.194946 -2.708874 14.545163 -4.611701 -3.262446 13.360385 5.346727 -1.559497 -2.470146 -1.406114 -1.006218 1.981706 0.791694 -3.877230 -4.369847 7.729049 0.000000 0.000000 0.000000 -8.563976 -22.673732 3.121558 -11.470116 -15.408599 -9.915013 -177.234348 -79.331002 -157.250309 0.000000 0.000000 0.000000 -5.568934 11.118117 2.816400 4.058551 9.518659 10.606376 6.823489 14.607522 9.751991 0.000000 0.000000 0.000000 5.245759 -19.510184 -0.177718 2.384104 21.130936 1.508682 3.025568 8.927290 1.591627 0.000000 0.000000 0.000000 4.304179 -21.247132 7.955031 5.281007 44.061997 -7.902483 10.766611 10.265779 -0.490053 0.000000 0.000000 0.000000 
-2581.428711 766.277222 1148.692017 -3.040426 14.897126 -5.090891 -3.189003 13.195279 5.315608 -1.836959 -2.440437 -1.471443 -1.344525 1.996216 0.743701 -4.067383 -3.727662 8.046280 0.000000 0.000000 0.000000 -8.813529 -24.483247 3.566861 -11.141782 -17.168439 -9.900204 -177.140502 -85.612286 -155.625676 0.000000 0.000000 0.000000 -5.163270 10.850433 3.040586 4.155712 9.636638 10.963433 6.545703 14.001656 9.513165 0.000000 0.000000 0.000000 5.952368 -22.119841 -0.524358 2.994939 26.092065 2.626118 4.494186 10.411090 2.242995 0.000000 0.000000 0.000000 4.205255 -19.698530 7.474462 5.522181 42.706664 -7.685973 10.406144 7.498700 0.488996 0.000000 0.000000 0.000000 
-2566.782959 767.975647 1146.228027 -3.065848 15.160234 -5.383332 -3.170105 13.165290 4.933072 -2.202594 -2.465321 -1.383000 -1.761664 2.004933 0.676981 -4.245801 -3.213179 8.365752 0.000000 0.000000 0.000000 -9.205107 -26.504972 3.944579 -10.622921 -18.999724 -9.794707 3.003997 -86.872776 26.722644 0.000000 0.000000 0.000000 -4.959058 10.518881 3.449135 4.199863 9.782150 11.556098 6.118249 13.548396 8.880504 0.000000 0.000000 0.000000 6.552995 -25.310255 -1.108375 3.614741 32.283313 4.005627 6.706831 12.434447 3.179877 0.000000 0.000000 0.000000 3.591801 -18.148080 7.049847 5.275170 41.953871 -7.542071 9.325617 3.789671 1.562441 0.000000 0.000000 0.000000 
-2553.552002 769.050171 1141.534058 -2.841862 15.411452 -5.677777 -3.005753 13.440214 4.677007 -2.626820 -2.536762 -1.318133 -2.242337 2.067229 0.612606 -4.389834 -2.898735 8.579522 0.000000 0.000000 0.000000 -9.540821 -28.746845 4.259025 -10.095235 -20.868758 -9.633118 3.062153 -79.511756 28.689798 0.000000 0.000000 0.000000 -4.873349 10.128654 3.914063 4.278330 9.911935 12.436292 5.557630 12.693135 8.185701 0.000000 0.000000 0.000000 6.120840 -29.101034 -1.393610 3.605764 39.314710 4.718394 8.607881 13.908787 3.911350 0.000000 0.000000 0.000000 2.455538 -16.739738 6.824928 4.631693 40.895304 -7.647697 7.741645 1.657603 1.876329 0.000000 0.000000 0.000000 
-2542.543701 768.948853 1134.087036 -2.315903 15.739737 -6.056959 -2.457211 14.136215 4.808482 -3.158469 -2.592312 -1.357952 -2.855276 2.205240 0.578248 -4.501472 -2.918190 8.631924 0.000000 0.000000 0.000000 -9.668877 -31.212346 4.365434 -9.860906 -22.634095 -9.418099 2.850403 -73.595594 29.753465 0.000000 0.000000 0.000000 -4.866563 9.640105 4.380043 4.479151 9.998548 13.710134 4.851727 10.899298 7.694101 0.000000 0.000000 0.000000 3.774845 -33.823122 -0.704341 2.482335 47.630368 3.519986 8.404709 13.800345 3.711415 0.000000 0.000000 0.000000 0.329053 -15.726277 6.967081 3.230485 38.802378 -8.376551 5.037874 3.682670 0.185537 0.000000 0.000000 0.000000 
-2533.536377 767.804565 1123.998047 -1.180385 16.016080 -6.210628 -1.500462 15.402564 5.025909 -3.987538 -2.678699 -1.325862 -3.817773 2.299189 0.564858 -4.587475 -3.236014 8.540858 0.000000 0.000000 0.000000 -9.610166 -33.963306 4.165006 -9.909777 -24.216861 -9.193560 2.416543 -68.642026 30.376205 0.000000 0.000000 0.000000 -4.935976 9.069772 4.896688 4.825377 10.056673 15.367536 4.062587 8.341157 7.313452 0.000000 0.000000 0.000000 -0.168095 -39.058933 0.775893 0.702980 56.799504 0.629492 5.848040 12.744378 2.589964 0.000000 0.000000 0.000000 -3.307373 -14.814887 7.246698 0.479597 35.676345 -9.739075 0.373208 9.102485 -3.496724 0.000000 0.000000 0.000000 
